<mxfile host="65bd71144e" modified="2021-10-29T07:25:23.235Z" agent="5.0 (Windows NT 10.0; Win64; x64) AppleWebKit/537.36 (KHTML, like Gecko) Code/1.61.2 Chrome/91.0.4472.164 Electron/13.5.1 Safari/537.36" etag="d9y-nh_NbVXG3eOWNYiJ" version="15.6.2" type="embed" pages="3">
    <diagram id="em1b6fMsbLagTfWiKfip" name="*商品情報検索">
        <mxGraphModel dx="1603" dy="430" grid="1" gridSize="10" guides="1" tooltips="1" connect="1" arrows="1" fold="1" page="1" pageScale="1" pageWidth="827" pageHeight="1169" math="0" shadow="0">
            <root>
                <mxCell id="d4U6wp0cc1fB_iKBPiok-0"/>
                <mxCell id="d4U6wp0cc1fB_iKBPiok-1" parent="d4U6wp0cc1fB_iKBPiok-0"/>
                <mxCell id="lVxiPy2TKDRp3jY-SrV1-1" value="正規社員&lt;br&gt;非正規社員" style="shape=umlActor;verticalLabelPosition=bottom;verticalAlign=top;html=1;" parent="d4U6wp0cc1fB_iKBPiok-1" vertex="1">
                    <mxGeometry x="-70" y="280" width="30" height="60" as="geometry"/>
                </mxCell>
                <mxCell id="lVxiPy2TKDRp3jY-SrV1-2" value="ログイン済&lt;br&gt;ホーム画面" style="shape=umlBoundary;whiteSpace=wrap;html=1;fillColor=#dae8fc;strokeColor=#6c8ebf;" parent="d4U6wp0cc1fB_iKBPiok-1" vertex="1">
                    <mxGeometry x="120" y="120" width="100" height="80" as="geometry"/>
                </mxCell>
                <mxCell id="lVxiPy2TKDRp3jY-SrV1-3" value="商品情報&lt;br&gt;セット商品&lt;br&gt;一覧画面" style="shape=umlBoundary;whiteSpace=wrap;html=1;fillColor=#dae8fc;strokeColor=#6c8ebf;" parent="d4U6wp0cc1fB_iKBPiok-1" vertex="1">
                    <mxGeometry x="120" y="280" width="100" height="80" as="geometry"/>
                </mxCell>
                <mxCell id="lVxiPy2TKDRp3jY-SrV1-5" value="商品情報&lt;br&gt;を取得する" style="ellipse;shape=umlControl;whiteSpace=wrap;html=1;fillColor=#f8cecc;strokeColor=#b85450;" parent="d4U6wp0cc1fB_iKBPiok-1" vertex="1">
                    <mxGeometry x="440" y="120" width="70" height="80" as="geometry"/>
                </mxCell>
                <mxCell id="lVxiPy2TKDRp3jY-SrV1-6" value="商品情報" style="ellipse;shape=umlEntity;whiteSpace=wrap;html=1;fillColor=#d5e8d4;strokeColor=#82b366;" parent="d4U6wp0cc1fB_iKBPiok-1" vertex="1">
                    <mxGeometry x="680" y="120" width="80" height="80" as="geometry"/>
                </mxCell>
                <mxCell id="lVxiPy2TKDRp3jY-SrV1-9" value="" style="endArrow=classic;html=1;rounded=0;" parent="d4U6wp0cc1fB_iKBPiok-1" edge="1">
                    <mxGeometry width="50" height="50" relative="1" as="geometry">
                        <mxPoint x="240" y="159.17000000000007" as="sourcePoint"/>
                        <mxPoint x="430" y="159.0000000000001" as="targetPoint"/>
                    </mxGeometry>
                </mxCell>
                <mxCell id="lVxiPy2TKDRp3jY-SrV1-10" value="「商品情報検索」&lt;br&gt;を押下" style="text;html=1;strokeColor=none;fillColor=none;align=center;verticalAlign=middle;whiteSpace=wrap;rounded=0;" parent="d4U6wp0cc1fB_iKBPiok-1" vertex="1">
                    <mxGeometry x="270" y="120" width="110" height="30" as="geometry"/>
                </mxCell>
                <mxCell id="lVxiPy2TKDRp3jY-SrV1-11" value="" style="endArrow=classic;html=1;rounded=0;" parent="d4U6wp0cc1fB_iKBPiok-1" edge="1">
                    <mxGeometry width="50" height="50" relative="1" as="geometry">
                        <mxPoint x="-29.999999999999773" y="319.9999999999998" as="sourcePoint"/>
                        <mxPoint x="110" y="159.9999999999999" as="targetPoint"/>
                    </mxGeometry>
                </mxCell>
                <mxCell id="lVxiPy2TKDRp3jY-SrV1-13" value="" style="endArrow=classic;html=1;rounded=0;" parent="d4U6wp0cc1fB_iKBPiok-1" edge="1">
                    <mxGeometry width="50" height="50" relative="1" as="geometry">
                        <mxPoint x="-29.999999999999773" y="319.9999999999998" as="sourcePoint"/>
                        <mxPoint x="110" y="320" as="targetPoint"/>
                    </mxGeometry>
                </mxCell>
                <mxCell id="lVxiPy2TKDRp3jY-SrV1-15" value="" style="endArrow=classic;html=1;rounded=0;startArrow=classic;startFill=1;" parent="d4U6wp0cc1fB_iKBPiok-1" edge="1">
                    <mxGeometry width="50" height="50" relative="1" as="geometry">
                        <mxPoint x="520" y="159.9999999999999" as="sourcePoint"/>
                        <mxPoint x="660" y="160" as="targetPoint"/>
                    </mxGeometry>
                </mxCell>
                <mxCell id="lVxiPy2TKDRp3jY-SrV1-17" value="" style="endArrow=classic;html=1;rounded=0;startArrow=none;startFill=0;endFill=1;" parent="d4U6wp0cc1fB_iKBPiok-1" edge="1">
                    <mxGeometry width="50" height="50" relative="1" as="geometry">
                        <mxPoint x="430" y="169.9999999999999" as="sourcePoint"/>
                        <mxPoint x="240" y="310" as="targetPoint"/>
                    </mxGeometry>
                </mxCell>
                <mxCell id="lVxiPy2TKDRp3jY-SrV1-27" value="検索する" style="ellipse;shape=umlControl;whiteSpace=wrap;html=1;fillColor=#f8cecc;strokeColor=#b85450;" parent="d4U6wp0cc1fB_iKBPiok-1" vertex="1">
                    <mxGeometry x="440" y="280" width="70" height="80" as="geometry"/>
                </mxCell>
                <mxCell id="lVxiPy2TKDRp3jY-SrV1-28" value="" style="endArrow=classic;html=1;rounded=0;" parent="d4U6wp0cc1fB_iKBPiok-1" edge="1">
                    <mxGeometry width="50" height="50" relative="1" as="geometry">
                        <mxPoint x="240" y="319.34000000000003" as="sourcePoint"/>
                        <mxPoint x="430.0000000000002" y="319.1700000000001" as="targetPoint"/>
                    </mxGeometry>
                </mxCell>
                <mxCell id="lVxiPy2TKDRp3jY-SrV1-29" value="" style="endArrow=classic;html=1;rounded=0;" parent="d4U6wp0cc1fB_iKBPiok-1" edge="1">
                    <mxGeometry width="50" height="50" relative="1" as="geometry">
                        <mxPoint x="520" y="310" as="sourcePoint"/>
                        <mxPoint x="660" y="170" as="targetPoint"/>
                    </mxGeometry>
                </mxCell>
            </root>
        </mxGraphModel>
    </diagram>
    <diagram id="5Pz3x9tau8wW2VPo6GqX" name="ボトルネック判定">
        <mxGraphModel dx="1603" dy="430" grid="1" gridSize="10" guides="1" tooltips="1" connect="1" arrows="1" fold="1" page="1" pageScale="1" pageWidth="827" pageHeight="1169" math="0" shadow="0">
            <root>
                <mxCell id="mzyuVujSkgFNetJPbpG6-0"/>
                <mxCell id="mzyuVujSkgFNetJPbpG6-1" parent="mzyuVujSkgFNetJPbpG6-0"/>
                <mxCell id="LMVVEGnQ78GfB0mcsq_5-0" value="正規社員&lt;br&gt;非正規社員" style="shape=umlActor;verticalLabelPosition=bottom;verticalAlign=top;html=1;" parent="mzyuVujSkgFNetJPbpG6-1" vertex="1">
                    <mxGeometry x="-70" y="280" width="30" height="60" as="geometry"/>
                </mxCell>
                <mxCell id="LMVVEGnQ78GfB0mcsq_5-1" value="ログイン済&lt;br&gt;ホーム画面" style="shape=umlBoundary;whiteSpace=wrap;html=1;fillColor=#dae8fc;strokeColor=#6c8ebf;" parent="mzyuVujSkgFNetJPbpG6-1" vertex="1">
                    <mxGeometry x="120" y="120" width="100" height="80" as="geometry"/>
                </mxCell>
                <mxCell id="LMVVEGnQ78GfB0mcsq_5-2" value="商品情報&lt;br&gt;一覧画面" style="shape=umlBoundary;whiteSpace=wrap;html=1;fillColor=#dae8fc;strokeColor=#6c8ebf;" parent="mzyuVujSkgFNetJPbpG6-1" vertex="1">
                    <mxGeometry x="120" y="280" width="100" height="80" as="geometry"/>
                </mxCell>
                <mxCell id="LMVVEGnQ78GfB0mcsq_5-3" value="商品情報&lt;br&gt;を取得する" style="ellipse;shape=umlControl;whiteSpace=wrap;html=1;fillColor=#f8cecc;strokeColor=#b85450;" parent="mzyuVujSkgFNetJPbpG6-1" vertex="1">
                    <mxGeometry x="440" y="120" width="70" height="80" as="geometry"/>
                </mxCell>
                <mxCell id="LMVVEGnQ78GfB0mcsq_5-4" value="商品情報" style="ellipse;shape=umlEntity;whiteSpace=wrap;html=1;fillColor=#d5e8d4;strokeColor=#82b366;" parent="mzyuVujSkgFNetJPbpG6-1" vertex="1">
                    <mxGeometry x="680" y="120" width="80" height="80" as="geometry"/>
                </mxCell>
                <mxCell id="LMVVEGnQ78GfB0mcsq_5-5" value="" style="endArrow=classic;html=1;rounded=0;" parent="mzyuVujSkgFNetJPbpG6-1" edge="1">
                    <mxGeometry width="50" height="50" relative="1" as="geometry">
                        <mxPoint x="240" y="159.17000000000007" as="sourcePoint"/>
                        <mxPoint x="430" y="159" as="targetPoint"/>
                    </mxGeometry>
                </mxCell>
                <mxCell id="LMVVEGnQ78GfB0mcsq_5-6" value="「商品情報検索」&lt;br&gt;を押下" style="text;html=1;strokeColor=none;fillColor=none;align=center;verticalAlign=middle;whiteSpace=wrap;rounded=0;" parent="mzyuVujSkgFNetJPbpG6-1" vertex="1">
                    <mxGeometry x="270" y="120" width="110" height="30" as="geometry"/>
                </mxCell>
                <mxCell id="LMVVEGnQ78GfB0mcsq_5-7" value="" style="endArrow=classic;html=1;rounded=0;" parent="mzyuVujSkgFNetJPbpG6-1" edge="1">
                    <mxGeometry width="50" height="50" relative="1" as="geometry">
                        <mxPoint x="-30" y="319.9999999999998" as="sourcePoint"/>
                        <mxPoint x="110" y="160" as="targetPoint"/>
                    </mxGeometry>
                </mxCell>
                <mxCell id="LMVVEGnQ78GfB0mcsq_5-8" value="" style="endArrow=classic;html=1;rounded=0;" parent="mzyuVujSkgFNetJPbpG6-1" edge="1">
                    <mxGeometry width="50" height="50" relative="1" as="geometry">
                        <mxPoint x="-30" y="319.9999999999998" as="sourcePoint"/>
                        <mxPoint x="110" y="320" as="targetPoint"/>
                    </mxGeometry>
                </mxCell>
                <mxCell id="LMVVEGnQ78GfB0mcsq_5-9" value="" style="endArrow=classic;html=1;rounded=0;startArrow=classic;startFill=1;" parent="mzyuVujSkgFNetJPbpG6-1" edge="1">
                    <mxGeometry width="50" height="50" relative="1" as="geometry">
                        <mxPoint x="520" y="160" as="sourcePoint"/>
                        <mxPoint x="660" y="160" as="targetPoint"/>
                    </mxGeometry>
                </mxCell>
                <mxCell id="LMVVEGnQ78GfB0mcsq_5-10" value="" style="endArrow=classic;html=1;rounded=0;startArrow=none;startFill=0;endFill=1;" parent="mzyuVujSkgFNetJPbpG6-1" edge="1">
                    <mxGeometry width="50" height="50" relative="1" as="geometry">
                        <mxPoint x="430" y="170" as="sourcePoint"/>
                        <mxPoint x="240" y="310" as="targetPoint"/>
                    </mxGeometry>
                </mxCell>
                <mxCell id="LMVVEGnQ78GfB0mcsq_5-12" value="" style="endArrow=classic;html=1;rounded=0;" parent="mzyuVujSkgFNetJPbpG6-1" edge="1">
                    <mxGeometry width="50" height="50" relative="1" as="geometry">
                        <mxPoint x="240" y="319.34000000000015" as="sourcePoint"/>
                        <mxPoint x="430" y="319.1700000000001" as="targetPoint"/>
                    </mxGeometry>
                </mxCell>
                <mxCell id="LMVVEGnQ78GfB0mcsq_5-14" value="表示する" style="ellipse;shape=umlControl;whiteSpace=wrap;html=1;fillColor=#f8cecc;strokeColor=#b85450;" parent="mzyuVujSkgFNetJPbpG6-1" vertex="1">
                    <mxGeometry x="440" y="280" width="70" height="80" as="geometry"/>
                </mxCell>
                <mxCell id="7AsI2XNyP3h9JwQ9ARKl-0" value="ボトルネック検索画面" style="shape=umlBoundary;whiteSpace=wrap;html=1;fillColor=#dae8fc;strokeColor=#6c8ebf;" parent="mzyuVujSkgFNetJPbpG6-1" vertex="1">
                    <mxGeometry x="120" y="440" width="100" height="80" as="geometry"/>
                </mxCell>
                <mxCell id="7AsI2XNyP3h9JwQ9ARKl-1" value="検索する" style="ellipse;shape=umlControl;whiteSpace=wrap;html=1;fillColor=#f8cecc;strokeColor=#b85450;" parent="mzyuVujSkgFNetJPbpG6-1" vertex="1">
                    <mxGeometry x="440" y="440" width="70" height="80" as="geometry"/>
                </mxCell>
                <mxCell id="7AsI2XNyP3h9JwQ9ARKl-2" value="" style="endArrow=classic;html=1;rounded=0;startArrow=none;startFill=0;endFill=1;" parent="mzyuVujSkgFNetJPbpG6-1" edge="1">
                    <mxGeometry width="50" height="50" relative="1" as="geometry">
                        <mxPoint x="429.9999999999998" y="330" as="sourcePoint"/>
                        <mxPoint x="239.99999999999977" y="470" as="targetPoint"/>
                    </mxGeometry>
                </mxCell>
                <mxCell id="7AsI2XNyP3h9JwQ9ARKl-3" value="" style="endArrow=classic;html=1;rounded=0;" parent="mzyuVujSkgFNetJPbpG6-1" edge="1">
                    <mxGeometry width="50" height="50" relative="1" as="geometry">
                        <mxPoint x="239.99999999999977" y="479.58000000000015" as="sourcePoint"/>
                        <mxPoint x="429.9999999999998" y="479.40999999999997" as="targetPoint"/>
                    </mxGeometry>
                </mxCell>
                <mxCell id="7AsI2XNyP3h9JwQ9ARKl-4" value="" style="endArrow=classic;html=1;rounded=0;" parent="mzyuVujSkgFNetJPbpG6-1" edge="1">
                    <mxGeometry width="50" height="50" relative="1" as="geometry">
                        <mxPoint x="-30" y="320" as="sourcePoint"/>
                        <mxPoint x="110" y="480" as="targetPoint"/>
                    </mxGeometry>
                </mxCell>
            </root>
        </mxGraphModel>
    </diagram>
    <diagram id="ESTtlpsgeIXyWqRHIMmx" name="スペック検索">
        &#xa;
        <mxGraphModel dx="1737" dy="717" grid="1" gridSize="10" guides="1" tooltips="1" connect="1" arrows="1" fold="1" page="1" pageScale="1" pageWidth="827" pageHeight="1169" math="0" shadow="0">
            &#xa;
            <root>
                &#xa;
                <mxCell id="nSvWwGeYQzesH8xxH-ef-0"/>
                &#xa;
                <mxCell id="nSvWwGeYQzesH8xxH-ef-1" parent="nSvWwGeYQzesH8xxH-ef-0"/>
                &#xa;
                <mxCell id="AMLM4FUAheRv_1A4bSG0-0" value="正規社員&lt;br&gt;非正規社員" style="shape=umlActor;verticalLabelPosition=bottom;verticalAlign=top;html=1;" vertex="1" parent="nSvWwGeYQzesH8xxH-ef-1">
                    &#xa;
                    <mxGeometry x="-70" y="280" width="30" height="60" as="geometry"/>
                    &#xa;
                </mxCell>
                &#xa;
                <mxCell id="AMLM4FUAheRv_1A4bSG0-1" value="ログイン済&lt;br&gt;ホーム画面" style="shape=umlBoundary;whiteSpace=wrap;html=1;fillColor=#dae8fc;strokeColor=#6c8ebf;" vertex="1" parent="nSvWwGeYQzesH8xxH-ef-1">
                    &#xa;
                    <mxGeometry x="120" y="120" width="100" height="80" as="geometry"/>
                    &#xa;
                </mxCell>
                &#xa;
                <mxCell id="AMLM4FUAheRv_1A4bSG0-2" value="商品情報&lt;br&gt;一覧画面" style="shape=umlBoundary;whiteSpace=wrap;html=1;fillColor=#dae8fc;strokeColor=#6c8ebf;" vertex="1" parent="nSvWwGeYQzesH8xxH-ef-1">
                    &#xa;
                    <mxGeometry x="120" y="280" width="100" height="80" as="geometry"/>
                    &#xa;
                </mxCell>
                &#xa;
                <mxCell id="AMLM4FUAheRv_1A4bSG0-3" value="商品情報&lt;br&gt;を取得する" style="ellipse;shape=umlControl;whiteSpace=wrap;html=1;fillColor=#f8cecc;strokeColor=#b85450;" vertex="1" parent="nSvWwGeYQzesH8xxH-ef-1">
                    &#xa;
                    <mxGeometry x="440" y="120" width="70" height="80" as="geometry"/>
                    &#xa;
                </mxCell>
                &#xa;
                <mxCell id="AMLM4FUAheRv_1A4bSG0-4" value="商品情報" style="ellipse;shape=umlEntity;whiteSpace=wrap;html=1;fillColor=#d5e8d4;strokeColor=#82b366;" vertex="1" parent="nSvWwGeYQzesH8xxH-ef-1">
                    &#xa;
                    <mxGeometry x="680" y="120" width="80" height="80" as="geometry"/>
                    &#xa;
                </mxCell>
                &#xa;
                <mxCell id="AMLM4FUAheRv_1A4bSG0-5" value="" style="endArrow=classic;html=1;rounded=0;" edge="1" parent="nSvWwGeYQzesH8xxH-ef-1">
                    &#xa;
                    <mxGeometry width="50" height="50" relative="1" as="geometry">
                        &#xa;
                        <mxPoint x="240" y="159.17000000000007" as="sourcePoint"/>
                        &#xa;
                        <mxPoint x="430" y="159" as="targetPoint"/>
                        &#xa;
                    </mxGeometry>
                    &#xa;
                </mxCell>
                &#xa;
                <mxCell id="AMLM4FUAheRv_1A4bSG0-6" value="「商品情報検索」&lt;br&gt;を押下" style="text;html=1;strokeColor=none;fillColor=none;align=center;verticalAlign=middle;whiteSpace=wrap;rounded=0;" vertex="1" parent="nSvWwGeYQzesH8xxH-ef-1">
                    &#xa;
                    <mxGeometry x="270" y="120" width="110" height="30" as="geometry"/>
                    &#xa;
                </mxCell>
                &#xa;
                <mxCell id="AMLM4FUAheRv_1A4bSG0-7" value="" style="endArrow=classic;html=1;rounded=0;" edge="1" parent="nSvWwGeYQzesH8xxH-ef-1">
                    &#xa;
                    <mxGeometry width="50" height="50" relative="1" as="geometry">
                        &#xa;
                        <mxPoint x="-30" y="319.99999999999955" as="sourcePoint"/>
                        &#xa;
                        <mxPoint x="110" y="160" as="targetPoint"/>
                        &#xa;
                    </mxGeometry>
                    &#xa;
                </mxCell>
                &#xa;
                <mxCell id="AMLM4FUAheRv_1A4bSG0-8" value="" style="endArrow=classic;html=1;rounded=0;" edge="1" parent="nSvWwGeYQzesH8xxH-ef-1">
                    &#xa;
                    <mxGeometry width="50" height="50" relative="1" as="geometry">
                        &#xa;
                        <mxPoint x="-30" y="319.99999999999955" as="sourcePoint"/>
                        &#xa;
                        <mxPoint x="110" y="320" as="targetPoint"/>
                        &#xa;
                    </mxGeometry>
                    &#xa;
                </mxCell>
                &#xa;
                <mxCell id="AMLM4FUAheRv_1A4bSG0-9" value="" style="endArrow=classic;html=1;rounded=0;startArrow=classic;startFill=1;" edge="1" parent="nSvWwGeYQzesH8xxH-ef-1">
                    &#xa;
                    <mxGeometry width="50" height="50" relative="1" as="geometry">
                        &#xa;
                        <mxPoint x="520" y="160" as="sourcePoint"/>
                        &#xa;
                        <mxPoint x="659.9999999999995" y="160" as="targetPoint"/>
                        &#xa;
                    </mxGeometry>
                    &#xa;
                </mxCell>
                &#xa;
                <mxCell id="AMLM4FUAheRv_1A4bSG0-10" value="" style="endArrow=classic;html=1;rounded=0;startArrow=none;startFill=0;endFill=1;" edge="1" parent="nSvWwGeYQzesH8xxH-ef-1">
                    &#xa;
                    <mxGeometry width="50" height="50" relative="1" as="geometry">
                        &#xa;
                        <mxPoint x="430" y="170" as="sourcePoint"/>
                        &#xa;
                        <mxPoint x="240" y="310" as="targetPoint"/>
                        &#xa;
                    </mxGeometry>
                    &#xa;
                </mxCell>
                &#xa;
                <mxCell id="AMLM4FUAheRv_1A4bSG0-11" value="" style="endArrow=classic;html=1;rounded=0;" edge="1" parent="nSvWwGeYQzesH8xxH-ef-1">
                    &#xa;
                    <mxGeometry width="50" height="50" relative="1" as="geometry">
                        &#xa;
                        <mxPoint x="240" y="319.34000000000015" as="sourcePoint"/>
                        &#xa;
                        <mxPoint x="430" y="319.16999999999985" as="targetPoint"/>
                        &#xa;
                    </mxGeometry>
                    &#xa;
                </mxCell>
                &#xa;
                <mxCell id="AMLM4FUAheRv_1A4bSG0-12" value="表示する" style="ellipse;shape=umlControl;whiteSpace=wrap;html=1;fillColor=#f8cecc;strokeColor=#b85450;" vertex="1" parent="nSvWwGeYQzesH8xxH-ef-1">
                    &#xa;
                    <mxGeometry x="440" y="280" width="70" height="80" as="geometry"/>
                    &#xa;
                </mxCell>
                &#xa;
                <mxCell id="AMLM4FUAheRv_1A4bSG0-13" value="スペック&lt;br&gt;検索画面" style="shape=umlBoundary;whiteSpace=wrap;html=1;fillColor=#dae8fc;strokeColor=#6c8ebf;" vertex="1" parent="nSvWwGeYQzesH8xxH-ef-1">
                    &#xa;
                    <mxGeometry x="120" y="440" width="100" height="80" as="geometry"/>
                    &#xa;
                </mxCell>
                &#xa;
                <mxCell id="AMLM4FUAheRv_1A4bSG0-14" value="検索する" style="ellipse;shape=umlControl;whiteSpace=wrap;html=1;fillColor=#f8cecc;strokeColor=#b85450;" vertex="1" parent="nSvWwGeYQzesH8xxH-ef-1">
                    &#xa;
                    <mxGeometry x="440" y="440" width="70" height="80" as="geometry"/>
                    &#xa;
                </mxCell>
                &#xa;
                <mxCell id="AMLM4FUAheRv_1A4bSG0-15" value="" style="endArrow=classic;html=1;rounded=0;startArrow=none;startFill=0;endFill=1;" edge="1" parent="nSvWwGeYQzesH8xxH-ef-1">
                    &#xa;
                    <mxGeometry width="50" height="50" relative="1" as="geometry">
                        &#xa;
                        <mxPoint x="430" y="330" as="sourcePoint"/>
                        &#xa;
                        <mxPoint x="240" y="470" as="targetPoint"/>
                        &#xa;
                    </mxGeometry>
                    &#xa;
                </mxCell>
                &#xa;
                <mxCell id="AMLM4FUAheRv_1A4bSG0-16" value="" style="endArrow=classic;html=1;rounded=0;" edge="1" parent="nSvWwGeYQzesH8xxH-ef-1">
                    &#xa;
                    <mxGeometry width="50" height="50" relative="1" as="geometry">
                        &#xa;
                        <mxPoint x="240" y="479.58000000000015" as="sourcePoint"/>
                        &#xa;
                        <mxPoint x="430" y="479.40999999999985" as="targetPoint"/>
                        &#xa;
                    </mxGeometry>
                    &#xa;
                </mxCell>
                &#xa;
                <mxCell id="AMLM4FUAheRv_1A4bSG0-17" value="" style="endArrow=classic;html=1;rounded=0;" edge="1" parent="nSvWwGeYQzesH8xxH-ef-1">
                    &#xa;
                    <mxGeometry width="50" height="50" relative="1" as="geometry">
                        &#xa;
                        <mxPoint x="-30" y="320" as="sourcePoint"/>
                        &#xa;
                        <mxPoint x="110" y="480" as="targetPoint"/>
                        &#xa;
                    </mxGeometry>
                    &#xa;
                </mxCell>
                &#xa;
                <mxCell id="AMLM4FUAheRv_1A4bSG0-18" value="" style="endArrow=none;html=1;rounded=0;startArrow=classic;startFill=1;endFill=0;" edge="1" parent="nSvWwGeYQzesH8xxH-ef-1">
                    &#xa;
                    <mxGeometry width="50" height="50" relative="1" as="geometry">
                        &#xa;
                        <mxPoint x="660" y="170" as="sourcePoint"/>
                        &#xa;
                        <mxPoint x="520" y="480" as="targetPoint"/>
                        &#xa;
                    </mxGeometry>
                    &#xa;
                </mxCell>
                &#xa;
            </root>
            &#xa;
        </mxGraphModel>
        &#xa;
    </diagram>
</mxfile>